<mxfile host="app.diagrams.net" agent="Mozilla/5.0 (Windows NT 10.0; Win64; x64; rv:135.0) Gecko/20100101 Firefox/135.0" version="26.0.16">
  <diagram name="Страница — 1" id="d3kOzRfhT8X_lhznFxZR">
    <mxGraphModel dx="1014" dy="703" grid="1" gridSize="10" guides="1" tooltips="1" connect="1" arrows="1" fold="1" page="1" pageScale="1" pageWidth="827" pageHeight="1169" math="0" shadow="0">
      <root>
        <mxCell id="0" />
        <mxCell id="1" parent="0" />
        <mxCell id="0UNbBHlHOz3HFfqeEK-B-40" value="" style="endArrow=none;html=1;rounded=0;entryX=0.5;entryY=0.5;entryDx=0;entryDy=0;entryPerimeter=0;exitX=0;exitY=1;exitDx=0;exitDy=0;" parent="1" source="0UNbBHlHOz3HFfqeEK-B-13" target="0UNbBHlHOz3HFfqeEK-B-2" edge="1">
          <mxGeometry width="50" height="50" relative="1" as="geometry">
            <mxPoint x="430" y="310" as="sourcePoint" />
            <mxPoint x="550" y="180" as="targetPoint" />
          </mxGeometry>
        </mxCell>
        <mxCell id="0UNbBHlHOz3HFfqeEK-B-39" value="" style="endArrow=none;html=1;rounded=0;entryX=0.5;entryY=0.5;entryDx=0;entryDy=0;entryPerimeter=0;exitX=0;exitY=1;exitDx=0;exitDy=0;" parent="1" source="0UNbBHlHOz3HFfqeEK-B-12" target="0UNbBHlHOz3HFfqeEK-B-2" edge="1">
          <mxGeometry width="50" height="50" relative="1" as="geometry">
            <mxPoint x="505" y="350" as="sourcePoint" />
            <mxPoint x="625" y="220" as="targetPoint" />
          </mxGeometry>
        </mxCell>
        <mxCell id="0UNbBHlHOz3HFfqeEK-B-1" value="Гость" style="shape=umlActor;verticalLabelPosition=middle;verticalAlign=middle;html=1;outlineConnect=0;labelPosition=left;align=right;" parent="1" vertex="1">
          <mxGeometry x="90" y="150" width="30" height="60" as="geometry" />
        </mxCell>
        <mxCell id="0UNbBHlHOz3HFfqeEK-B-3" value="Администратор" style="shape=umlActor;verticalLabelPosition=bottom;verticalAlign=top;html=1;outlineConnect=0;labelPosition=center;align=center;" parent="1" vertex="1">
          <mxGeometry x="90" y="930" width="30" height="60" as="geometry" />
        </mxCell>
        <mxCell id="0UNbBHlHOz3HFfqeEK-B-5" value="&lt;div&gt;Просмотреть&lt;/div&gt;&lt;div&gt;рецепт&lt;/div&gt;" style="ellipse;whiteSpace=wrap;html=1;" parent="1" vertex="1">
          <mxGeometry x="210" y="170" width="120" height="80" as="geometry" />
        </mxCell>
        <mxCell id="0UNbBHlHOz3HFfqeEK-B-7" value="Искать рецепт" style="ellipse;whiteSpace=wrap;html=1;" parent="1" vertex="1">
          <mxGeometry x="210" y="260" width="120" height="80" as="geometry" />
        </mxCell>
        <mxCell id="0UNbBHlHOz3HFfqeEK-B-8" value="Зарегистрироваться на сайте" style="ellipse;whiteSpace=wrap;html=1;" parent="1" vertex="1">
          <mxGeometry x="210" width="120" height="80" as="geometry" />
        </mxCell>
        <mxCell id="0UNbBHlHOz3HFfqeEK-B-10" value="&lt;div&gt;Авторизоваться&lt;/div&gt;&lt;div&gt;на сайте&lt;/div&gt;" style="ellipse;whiteSpace=wrap;html=1;" parent="1" vertex="1">
          <mxGeometry x="210" y="80" width="120" height="80" as="geometry" />
        </mxCell>
        <mxCell id="0UNbBHlHOz3HFfqeEK-B-13" value="Просмотреть профиль" style="ellipse;whiteSpace=wrap;html=1;" parent="1" vertex="1">
          <mxGeometry x="212" y="440" width="120" height="80" as="geometry" />
        </mxCell>
        <mxCell id="0UNbBHlHOz3HFfqeEK-B-15" value="Создать новый рецепт" style="ellipse;whiteSpace=wrap;html=1;" parent="1" vertex="1">
          <mxGeometry x="210" y="628" width="120" height="80" as="geometry" />
        </mxCell>
        <mxCell id="0UNbBHlHOz3HFfqeEK-B-16" value="&lt;div&gt;Редактировать рецепт&lt;/div&gt;" style="ellipse;whiteSpace=wrap;html=1;" parent="1" vertex="1">
          <mxGeometry x="391" y="700" width="120" height="80" as="geometry" />
        </mxCell>
        <mxCell id="0UNbBHlHOz3HFfqeEK-B-17" value="Удалить рецепт" style="ellipse;whiteSpace=wrap;html=1;" parent="1" vertex="1">
          <mxGeometry x="391" y="790" width="120" height="80" as="geometry" />
        </mxCell>
        <mxCell id="0UNbBHlHOz3HFfqeEK-B-18" value="&lt;div&gt;Добавить&lt;/div&gt;&lt;div&gt;рецепт&lt;/div&gt;&lt;div&gt;в избранное&lt;/div&gt;" style="ellipse;whiteSpace=wrap;html=1;" parent="1" vertex="1">
          <mxGeometry x="475" y="83" width="120" height="80" as="geometry" />
        </mxCell>
        <mxCell id="0UNbBHlHOz3HFfqeEK-B-19" value="&lt;div&gt;Удалить рецепт&lt;/div&gt;&lt;div&gt;из избранного&lt;/div&gt;" style="ellipse;whiteSpace=wrap;html=1;" parent="1" vertex="1">
          <mxGeometry x="391" y="532" width="120" height="80" as="geometry" />
        </mxCell>
        <mxCell id="0UNbBHlHOz3HFfqeEK-B-21" value="Комментировать рецепт" style="ellipse;whiteSpace=wrap;html=1;" parent="1" vertex="1">
          <mxGeometry x="560" y="150" width="120" height="80" as="geometry" />
        </mxCell>
        <mxCell id="0UNbBHlHOz3HFfqeEK-B-22" value="Оценить рецепт" style="ellipse;whiteSpace=wrap;html=1;" parent="1" vertex="1">
          <mxGeometry x="560" y="240" width="120" height="80" as="geometry" />
        </mxCell>
        <mxCell id="0UNbBHlHOz3HFfqeEK-B-23" value="Модерировать рецепт перед публикацией" style="ellipse;whiteSpace=wrap;html=1;" parent="1" vertex="1">
          <mxGeometry x="210" y="980" width="120" height="80" as="geometry" />
        </mxCell>
        <mxCell id="0UNbBHlHOz3HFfqeEK-B-24" value="Заблокировать пользователя" style="ellipse;whiteSpace=wrap;html=1;" parent="1" vertex="1">
          <mxGeometry x="210" y="880" width="120" height="80" as="geometry" />
        </mxCell>
        <mxCell id="0UNbBHlHOz3HFfqeEK-B-25" value="" style="endArrow=none;html=1;rounded=0;entryX=0.5;entryY=0.5;entryDx=0;entryDy=0;entryPerimeter=0;exitX=0.034;exitY=0.342;exitDx=0;exitDy=0;exitPerimeter=0;" parent="1" source="0UNbBHlHOz3HFfqeEK-B-5" target="0UNbBHlHOz3HFfqeEK-B-1" edge="1">
          <mxGeometry width="50" height="50" relative="1" as="geometry">
            <mxPoint x="380" y="310" as="sourcePoint" />
            <mxPoint x="430" y="260" as="targetPoint" />
          </mxGeometry>
        </mxCell>
        <mxCell id="0UNbBHlHOz3HFfqeEK-B-27" value="" style="endArrow=none;html=1;rounded=0;entryX=0.5;entryY=0.5;entryDx=0;entryDy=0;entryPerimeter=0;exitX=0;exitY=0;exitDx=0;exitDy=0;" parent="1" source="0UNbBHlHOz3HFfqeEK-B-7" target="0UNbBHlHOz3HFfqeEK-B-1" edge="1">
          <mxGeometry width="50" height="50" relative="1" as="geometry">
            <mxPoint x="370" y="480" as="sourcePoint" />
            <mxPoint x="490" y="320" as="targetPoint" />
          </mxGeometry>
        </mxCell>
        <mxCell id="0UNbBHlHOz3HFfqeEK-B-33" value="" style="endArrow=none;html=1;rounded=0;exitX=0;exitY=0;exitDx=0;exitDy=0;entryX=0.5;entryY=0.5;entryDx=0;entryDy=0;entryPerimeter=0;" parent="1" source="0UNbBHlHOz3HFfqeEK-B-23" target="0UNbBHlHOz3HFfqeEK-B-3" edge="1">
          <mxGeometry width="50" height="50" relative="1" as="geometry">
            <mxPoint x="216.24" y="993.2800000000002" as="sourcePoint" />
            <mxPoint x="730" y="510" as="targetPoint" />
          </mxGeometry>
        </mxCell>
        <mxCell id="0UNbBHlHOz3HFfqeEK-B-34" value="" style="endArrow=none;html=1;rounded=0;exitX=0;exitY=0.5;exitDx=0;exitDy=0;entryX=0.5;entryY=0.5;entryDx=0;entryDy=0;entryPerimeter=0;" parent="1" source="0UNbBHlHOz3HFfqeEK-B-24" target="0UNbBHlHOz3HFfqeEK-B-3" edge="1">
          <mxGeometry width="50" height="50" relative="1" as="geometry">
            <mxPoint x="590" y="550" as="sourcePoint" />
            <mxPoint x="690" y="500" as="targetPoint" />
          </mxGeometry>
        </mxCell>
        <mxCell id="0UNbBHlHOz3HFfqeEK-B-35" value="" style="endArrow=none;html=1;rounded=0;exitX=0.078;exitY=0.789;exitDx=0;exitDy=0;entryX=0.5;entryY=0.5;entryDx=0;entryDy=0;entryPerimeter=0;exitPerimeter=0;" parent="1" source="0UNbBHlHOz3HFfqeEK-B-8" target="0UNbBHlHOz3HFfqeEK-B-1" edge="1">
          <mxGeometry width="50" height="50" relative="1" as="geometry">
            <mxPoint x="380" y="370" as="sourcePoint" />
            <mxPoint x="420" y="250" as="targetPoint" />
          </mxGeometry>
        </mxCell>
        <mxCell id="0UNbBHlHOz3HFfqeEK-B-36" value="" style="endArrow=none;html=1;rounded=0;entryX=0.034;entryY=0.678;entryDx=0;entryDy=0;exitX=0.5;exitY=0.5;exitDx=0;exitDy=0;exitPerimeter=0;entryPerimeter=0;" parent="1" source="0UNbBHlHOz3HFfqeEK-B-1" target="0UNbBHlHOz3HFfqeEK-B-10" edge="1">
          <mxGeometry width="50" height="50" relative="1" as="geometry">
            <mxPoint x="390" y="380" as="sourcePoint" />
            <mxPoint x="510" y="250" as="targetPoint" />
          </mxGeometry>
        </mxCell>
        <mxCell id="0UNbBHlHOz3HFfqeEK-B-42" value="" style="endArrow=none;html=1;rounded=0;entryX=0.072;entryY=0.254;entryDx=0;entryDy=0;exitX=0.5;exitY=0.5;exitDx=0;exitDy=0;exitPerimeter=0;entryPerimeter=0;" parent="1" source="0UNbBHlHOz3HFfqeEK-B-2" target="0UNbBHlHOz3HFfqeEK-B-15" edge="1">
          <mxGeometry width="50" height="50" relative="1" as="geometry">
            <mxPoint x="810" y="250" as="sourcePoint" />
            <mxPoint x="930" y="120" as="targetPoint" />
          </mxGeometry>
        </mxCell>
        <mxCell id="0UNbBHlHOz3HFfqeEK-B-48" value="" style="endArrow=none;html=1;rounded=0;entryX=0.004;entryY=0.591;entryDx=0;entryDy=0;exitX=0.5;exitY=0.5;exitDx=0;exitDy=0;exitPerimeter=0;entryPerimeter=0;" parent="1" source="0UNbBHlHOz3HFfqeEK-B-2" target="0UNbBHlHOz3HFfqeEK-B-20" edge="1">
          <mxGeometry width="50" height="50" relative="1" as="geometry">
            <mxPoint x="845" y="260" as="sourcePoint" />
            <mxPoint x="1068" y="392" as="targetPoint" />
          </mxGeometry>
        </mxCell>
        <mxCell id="0UNbBHlHOz3HFfqeEK-B-2" value="&lt;div&gt;Пользователь&lt;/div&gt;" style="shape=umlActor;verticalLabelPosition=middle;verticalAlign=middle;html=1;outlineConnect=0;labelPosition=left;align=right;" parent="1" vertex="1">
          <mxGeometry x="90" y="550" width="30" height="60" as="geometry" />
        </mxCell>
        <mxCell id="0UNbBHlHOz3HFfqeEK-B-51" value="extend" style="html=1;verticalAlign=bottom;endArrow=block;dashed=1;endSize=8;curved=0;rounded=0;endFill=1;entryX=1;entryY=0.5;entryDx=0;entryDy=0;exitX=0;exitY=0.5;exitDx=0;exitDy=0;" parent="1" source="0UNbBHlHOz3HFfqeEK-B-19" target="0UNbBHlHOz3HFfqeEK-B-20" edge="1">
          <mxGeometry relative="1" as="geometry">
            <mxPoint x="451" y="852" as="sourcePoint" />
            <mxPoint x="371" y="852" as="targetPoint" />
            <mxPoint as="offset" />
          </mxGeometry>
        </mxCell>
        <mxCell id="0UNbBHlHOz3HFfqeEK-B-53" value="extend" style="html=1;verticalAlign=bottom;endArrow=block;dashed=1;endSize=8;curved=0;rounded=0;endFill=1;entryX=0.899;entryY=0.2;entryDx=0;entryDy=0;exitX=0;exitY=0.5;exitDx=0;exitDy=0;entryPerimeter=0;" parent="1" source="0UNbBHlHOz3HFfqeEK-B-18" target="0UNbBHlHOz3HFfqeEK-B-5" edge="1">
          <mxGeometry x="-0.5591" y="-4" relative="1" as="geometry">
            <mxPoint x="447" y="280" as="sourcePoint" />
            <mxPoint x="410" y="319" as="targetPoint" />
            <mxPoint as="offset" />
          </mxGeometry>
        </mxCell>
        <mxCell id="0UNbBHlHOz3HFfqeEK-B-54" value="extend" style="html=1;verticalAlign=bottom;endArrow=block;dashed=1;endSize=8;curved=0;rounded=0;endFill=1;entryX=1;entryY=0.5;entryDx=0;entryDy=0;exitX=0;exitY=0.5;exitDx=0;exitDy=0;" parent="1" source="0UNbBHlHOz3HFfqeEK-B-21" target="0UNbBHlHOz3HFfqeEK-B-5" edge="1">
          <mxGeometry x="-0.0435" y="-4" relative="1" as="geometry">
            <mxPoint x="467.52" y="263.12" as="sourcePoint" />
            <mxPoint x="320" y="236.88" as="targetPoint" />
            <mxPoint as="offset" />
          </mxGeometry>
        </mxCell>
        <mxCell id="0UNbBHlHOz3HFfqeEK-B-56" value="" style="endArrow=block;endFill=0;endSize=12;html=1;rounded=0;exitX=0.5;exitY=0;exitDx=0;exitDy=0;exitPerimeter=0;" parent="1" source="0UNbBHlHOz3HFfqeEK-B-2" target="0UNbBHlHOz3HFfqeEK-B-1" edge="1">
          <mxGeometry width="160" relative="1" as="geometry">
            <mxPoint x="80" y="490" as="sourcePoint" />
            <mxPoint x="140" y="320" as="targetPoint" />
          </mxGeometry>
        </mxCell>
        <mxCell id="0UNbBHlHOz3HFfqeEK-B-57" value="" style="endArrow=block;endFill=0;endSize=12;html=1;rounded=0;exitX=0.5;exitY=0;exitDx=0;exitDy=0;exitPerimeter=0;" parent="1" source="0UNbBHlHOz3HFfqeEK-B-3" target="0UNbBHlHOz3HFfqeEK-B-2" edge="1">
          <mxGeometry width="160" relative="1" as="geometry">
            <mxPoint x="105" y="390" as="sourcePoint" />
            <mxPoint x="90" y="650" as="targetPoint" />
          </mxGeometry>
        </mxCell>
        <mxCell id="0UNbBHlHOz3HFfqeEK-B-12" value="Выйти из аккаунта" style="ellipse;whiteSpace=wrap;html=1;" parent="1" vertex="1">
          <mxGeometry x="212" y="350" width="120" height="80" as="geometry" />
        </mxCell>
        <mxCell id="0UNbBHlHOz3HFfqeEK-B-20" value="&lt;div&gt;Просмотреть&lt;/div&gt;&lt;div&gt;список&lt;/div&gt;&lt;div&gt;&amp;nbsp;избранных рецептов&lt;/div&gt;" style="ellipse;whiteSpace=wrap;html=1;" parent="1" vertex="1">
          <mxGeometry x="211" y="532" width="120" height="80" as="geometry" />
        </mxCell>
        <mxCell id="0UNbBHlHOz3HFfqeEK-B-61" value="" style="endArrow=none;html=1;rounded=0;exitX=0.5;exitY=0.5;exitDx=0;exitDy=0;exitPerimeter=0;entryX=0;entryY=0;entryDx=0;entryDy=0;" parent="1" source="0UNbBHlHOz3HFfqeEK-B-2" target="0UNbBHlHOz3HFfqeEK-B-73" edge="1">
          <mxGeometry width="50" height="50" relative="1" as="geometry">
            <mxPoint x="70" y="650" as="sourcePoint" />
            <mxPoint x="195" y="790" as="targetPoint" />
          </mxGeometry>
        </mxCell>
        <mxCell id="0UNbBHlHOz3HFfqeEK-B-64" value="Только если актор — Пользователь или Администратор" style="shape=note2;boundedLbl=1;whiteSpace=wrap;html=1;size=19;verticalAlign=top;align=center;" parent="1" vertex="1">
          <mxGeometry x="390" width="120" height="80" as="geometry" />
        </mxCell>
        <mxCell id="0UNbBHlHOz3HFfqeEK-B-65" value="" style="endArrow=oval;dashed=1;endFill=0;endSize=12;html=1;rounded=0;exitX=-0.01;exitY=0.73;exitDx=0;exitDy=0;exitPerimeter=0;" parent="1" source="0UNbBHlHOz3HFfqeEK-B-64" edge="1">
          <mxGeometry width="160" relative="1" as="geometry">
            <mxPoint x="381.9599999999998" y="56.200000000000045" as="sourcePoint" />
            <mxPoint x="344" y="175" as="targetPoint" />
          </mxGeometry>
        </mxCell>
        <mxCell id="0UNbBHlHOz3HFfqeEK-B-66" value="" style="endArrow=oval;dashed=1;endFill=0;endSize=12;html=1;rounded=0;exitX=0.096;exitY=0.994;exitDx=0;exitDy=0;exitPerimeter=0;" parent="1" edge="1" source="0UNbBHlHOz3HFfqeEK-B-64">
          <mxGeometry width="160" relative="1" as="geometry">
            <mxPoint x="410" y="80" as="sourcePoint" />
            <mxPoint x="360" y="210" as="targetPoint" />
          </mxGeometry>
        </mxCell>
        <mxCell id="0UNbBHlHOz3HFfqeEK-B-67" value="extend" style="html=1;verticalAlign=bottom;endArrow=block;dashed=1;endSize=8;curved=0;rounded=0;endFill=1;entryX=0.95;entryY=0.762;entryDx=0;entryDy=0;exitX=0.024;exitY=0.343;exitDx=0;exitDy=0;entryPerimeter=0;exitPerimeter=0;" parent="1" source="0UNbBHlHOz3HFfqeEK-B-22" target="0UNbBHlHOz3HFfqeEK-B-5" edge="1">
          <mxGeometry x="-0.3195" y="-2" relative="1" as="geometry">
            <mxPoint x="562" y="283" as="sourcePoint" />
            <mxPoint x="310" y="280" as="targetPoint" />
            <mxPoint as="offset" />
          </mxGeometry>
        </mxCell>
        <mxCell id="0UNbBHlHOz3HFfqeEK-B-68" value="" style="endArrow=oval;dashed=1;endFill=0;endSize=12;html=1;rounded=0;exitX=0.227;exitY=1.007;exitDx=0;exitDy=0;exitPerimeter=0;" parent="1" source="0UNbBHlHOz3HFfqeEK-B-64" edge="1">
          <mxGeometry width="160" relative="1" as="geometry">
            <mxPoint x="417.3599999999999" y="83.03999999999996" as="sourcePoint" />
            <mxPoint x="371" y="237" as="targetPoint" />
          </mxGeometry>
        </mxCell>
        <mxCell id="0UNbBHlHOz3HFfqeEK-B-71" value="Открыть редактор профиля" style="ellipse;whiteSpace=wrap;html=1;" parent="1" vertex="1">
          <mxGeometry x="391" y="440" width="120" height="80" as="geometry" />
        </mxCell>
        <mxCell id="0UNbBHlHOz3HFfqeEK-B-72" value="extend" style="html=1;verticalAlign=bottom;endArrow=block;dashed=1;endSize=8;curved=0;rounded=0;endFill=1;entryX=1;entryY=0.5;entryDx=0;entryDy=0;exitX=0;exitY=0.5;exitDx=0;exitDy=0;" parent="1" edge="1">
          <mxGeometry relative="1" as="geometry">
            <mxPoint x="391" y="479.78999999999996" as="sourcePoint" />
            <mxPoint x="331" y="479.78999999999996" as="targetPoint" />
            <mxPoint as="offset" />
          </mxGeometry>
        </mxCell>
        <mxCell id="0UNbBHlHOz3HFfqeEK-B-73" value="&lt;div&gt;Посмотреть список&lt;/div&gt;&lt;div&gt;своих рецептов&lt;/div&gt;" style="ellipse;whiteSpace=wrap;html=1;" parent="1" vertex="1">
          <mxGeometry x="210" y="760" width="120" height="80" as="geometry" />
        </mxCell>
        <mxCell id="0UNbBHlHOz3HFfqeEK-B-74" value="extend" style="html=1;verticalAlign=bottom;endArrow=block;dashed=1;endSize=8;curved=0;rounded=0;endFill=1;entryX=1;entryY=0.5;entryDx=0;entryDy=0;exitX=0;exitY=0.5;exitDx=0;exitDy=0;" parent="1" source="0UNbBHlHOz3HFfqeEK-B-17" target="0UNbBHlHOz3HFfqeEK-B-73" edge="1">
          <mxGeometry relative="1" as="geometry">
            <mxPoint x="392" y="744.55" as="sourcePoint" />
            <mxPoint x="332" y="744.55" as="targetPoint" />
            <mxPoint as="offset" />
          </mxGeometry>
        </mxCell>
        <mxCell id="0UNbBHlHOz3HFfqeEK-B-75" value="extend" style="html=1;verticalAlign=bottom;endArrow=block;dashed=1;endSize=8;curved=0;rounded=0;endFill=1;exitX=0.047;exitY=0.694;exitDx=0;exitDy=0;exitPerimeter=0;" parent="1" source="0UNbBHlHOz3HFfqeEK-B-16" target="0UNbBHlHOz3HFfqeEK-B-73" edge="1">
          <mxGeometry x="0.1118" y="-3" relative="1" as="geometry">
            <mxPoint x="341" y="739.55" as="sourcePoint" />
            <mxPoint x="280" y="739.55" as="targetPoint" />
            <mxPoint as="offset" />
          </mxGeometry>
        </mxCell>
        <mxCell id="0UNbBHlHOz3HFfqeEK-B-76" value="include" style="html=1;verticalAlign=bottom;endArrow=block;dashed=1;endSize=8;curved=0;rounded=0;endFill=1;entryX=0.062;entryY=0.251;entryDx=0;entryDy=0;exitX=0.968;exitY=0.728;exitDx=0;exitDy=0;exitPerimeter=0;entryPerimeter=0;" parent="1" source="0UNbBHlHOz3HFfqeEK-B-15" target="0UNbBHlHOz3HFfqeEK-B-16" edge="1">
          <mxGeometry x="0.3769" y="8" relative="1" as="geometry">
            <mxPoint x="350" y="850" as="sourcePoint" />
            <mxPoint x="411" y="850" as="targetPoint" />
            <mxPoint as="offset" />
          </mxGeometry>
        </mxCell>
        <mxCell id="HRCV_27olk5WRz3-rdqu-2" value="Удалить комментарий под рецептом" style="ellipse;whiteSpace=wrap;html=1;" vertex="1" parent="1">
          <mxGeometry x="475" y="320" width="120" height="80" as="geometry" />
        </mxCell>
        <mxCell id="HRCV_27olk5WRz3-rdqu-4" value="extend" style="html=1;verticalAlign=bottom;endArrow=block;dashed=1;endSize=8;curved=0;rounded=0;endFill=1;entryX=1;entryY=1;entryDx=0;entryDy=0;exitX=0;exitY=0;exitDx=0;exitDy=0;" edge="1" parent="1" source="HRCV_27olk5WRz3-rdqu-2" target="0UNbBHlHOz3HFfqeEK-B-5">
          <mxGeometry x="-0.1796" y="23" relative="1" as="geometry">
            <mxPoint x="429" y="316" as="sourcePoint" />
            <mxPoint x="290" y="310" as="targetPoint" />
            <mxPoint as="offset" />
          </mxGeometry>
        </mxCell>
        <mxCell id="HRCV_27olk5WRz3-rdqu-7" value="" style="endArrow=oval;dashed=1;endFill=0;endSize=12;html=1;rounded=0;exitX=0.275;exitY=0.993;exitDx=0;exitDy=0;exitPerimeter=0;" edge="1" parent="1" source="0UNbBHlHOz3HFfqeEK-B-64">
          <mxGeometry width="160" relative="1" as="geometry">
            <mxPoint x="424.6399999999999" y="83.04000000000008" as="sourcePoint" />
            <mxPoint x="379" y="272" as="targetPoint" />
          </mxGeometry>
        </mxCell>
        <mxCell id="HRCV_27olk5WRz3-rdqu-8" value="Отредактировать профиль" style="ellipse;whiteSpace=wrap;html=1;" vertex="1" parent="1">
          <mxGeometry x="570" y="440" width="120" height="80" as="geometry" />
        </mxCell>
        <mxCell id="HRCV_27olk5WRz3-rdqu-9" value="extend" style="html=1;verticalAlign=bottom;endArrow=block;dashed=1;endSize=8;curved=0;rounded=0;endFill=1;exitX=0;exitY=0.5;exitDx=0;exitDy=0;" edge="1" parent="1">
          <mxGeometry relative="1" as="geometry">
            <mxPoint x="570" y="479.78999999999996" as="sourcePoint" />
            <mxPoint x="510" y="480" as="targetPoint" />
            <mxPoint as="offset" />
          </mxGeometry>
        </mxCell>
      </root>
    </mxGraphModel>
  </diagram>
</mxfile>
